<svg width="14" height="14" viewBox="0 0 14 14" xmlns="http://www.w3.org/2000/svg"><path d="M11.423 10.119c-.181-.182-.673-.362-1.476-.54a5.09 5.09 0 0 0 1.331-3.44A5.146 5.146 0 0 0 6.14 1 5.146 5.146 0 0 0 1 6.14a5.146 5.146 0 0 0 5.14 5.138c1.317 0 2.53-.5 3.438-1.33.167.781.347 1.273.54 1.475l1.608 1.608a.929.929 0 0 0 .66.277.929.929 0 0 0 .658-1.582l-1.62-1.607zm-5.284.105A4.089 4.089 0 0 1 2.054 6.14 4.089 4.089 0 0 1 6.14 2.054a4.089 4.089 0 0 1 4.085 4.085 4.089 4.089 0 0 1-4.085 4.085z" fill="#242424" fill-rule="nonzero" stroke="#242424" stroke-width=".769"></path></svg>